%TF.GenerationSoftware,KiCad,Pcbnew,10.0.1*%
%TF.CreationDate,2026-06-23T19:27:45+05:30*%
%TF.ProjectId,New2,4e657732-2e6b-4696-9361-645f70636258,rev?*%
%TF.SameCoordinates,Original*%
%TF.FileFunction,Drillmap*%
%TF.FilePolarity,Positive*%
%FSLAX45Y45*%
G04 Gerber Fmt 4.5, Leading zero omitted, Abs format (unit mm)*
G04 Created by KiCad (PCBNEW 10.0.1) date 2026-06-23 19:27:45*
%MOMM*%
%LPD*%
G01*
G04 APERTURE LIST*
%ADD10C,0.050000*%
%ADD11C,0.200000*%
%ADD12C,0.100000*%
G04 APERTURE END LIST*
D10*
X8003186Y-3281000D02*
X10172000Y-3281000D01*
X10172000Y-4798000D01*
X8003186Y-4798000D01*
X8003186Y-3281000D01*
X8131193Y-3359000D02*
G75*
G02*
X8032806Y-3359000I-49194J0D01*
G01*
X8032806Y-3359000D02*
G75*
G02*
X8131193Y-3359000I49194J0D01*
G01*
X8134090Y-4708000D02*
G75*
G02*
X8033910Y-4708000I-50090J0D01*
G01*
X8033910Y-4708000D02*
G75*
G02*
X8134090Y-4708000I50090J0D01*
G01*
X10125090Y-3359000D02*
G75*
G02*
X10024910Y-3359000I-50090J0D01*
G01*
X10024910Y-3359000D02*
G75*
G02*
X10125090Y-3359000I50090J0D01*
G01*
X10131090Y-4711000D02*
G75*
G02*
X10030910Y-4711000I-50090J0D01*
G01*
X10030910Y-4711000D02*
G75*
G02*
X10131090Y-4711000I50090J0D01*
G01*
D11*
D12*
X9069574Y-3896426D02*
X9099574Y-3926426D01*
X9099574Y-3896426D02*
X9069574Y-3926426D01*
X9781000Y-3704000D02*
X9811000Y-3734000D01*
X9811000Y-3704000D02*
X9781000Y-3734000D01*
X9127000Y-4433000D02*
G75*
G02*
X9027000Y-4433000I-50000J0D01*
G01*
X9027000Y-4433000D02*
G75*
G02*
X9127000Y-4433000I50000J0D01*
G01*
X9381000Y-4433000D02*
G75*
G02*
X9281000Y-4433000I-50000J0D01*
G01*
X9281000Y-4433000D02*
G75*
G02*
X9381000Y-4433000I50000J0D01*
G01*
X9635000Y-4433000D02*
G75*
G02*
X9535000Y-4433000I-50000J0D01*
G01*
X9535000Y-4433000D02*
G75*
G02*
X9635000Y-4433000I50000J0D01*
G01*
D11*
X8261463Y-5111984D02*
X8261463Y-4911984D01*
X8261463Y-4911984D02*
X8309082Y-4911984D01*
X8309082Y-4911984D02*
X8337653Y-4921508D01*
X8337653Y-4921508D02*
X8356701Y-4940555D01*
X8356701Y-4940555D02*
X8366225Y-4959603D01*
X8366225Y-4959603D02*
X8375749Y-4997698D01*
X8375749Y-4997698D02*
X8375749Y-5026270D01*
X8375749Y-5026270D02*
X8366225Y-5064365D01*
X8366225Y-5064365D02*
X8356701Y-5083412D01*
X8356701Y-5083412D02*
X8337653Y-5102460D01*
X8337653Y-5102460D02*
X8309082Y-5111984D01*
X8309082Y-5111984D02*
X8261463Y-5111984D01*
X8461463Y-5111984D02*
X8461463Y-4978650D01*
X8461463Y-5016746D02*
X8470987Y-4997698D01*
X8470987Y-4997698D02*
X8480511Y-4988174D01*
X8480511Y-4988174D02*
X8499558Y-4978650D01*
X8499558Y-4978650D02*
X8518606Y-4978650D01*
X8585272Y-5111984D02*
X8585272Y-4978650D01*
X8585272Y-4911984D02*
X8575749Y-4921508D01*
X8575749Y-4921508D02*
X8585272Y-4931031D01*
X8585272Y-4931031D02*
X8594796Y-4921508D01*
X8594796Y-4921508D02*
X8585272Y-4911984D01*
X8585272Y-4911984D02*
X8585272Y-4931031D01*
X8709082Y-5111984D02*
X8690034Y-5102460D01*
X8690034Y-5102460D02*
X8680511Y-5083412D01*
X8680511Y-5083412D02*
X8680511Y-4911984D01*
X8813844Y-5111984D02*
X8794796Y-5102460D01*
X8794796Y-5102460D02*
X8785272Y-5083412D01*
X8785272Y-5083412D02*
X8785272Y-4911984D01*
X9042415Y-5111984D02*
X9042415Y-4911984D01*
X9042415Y-4911984D02*
X9109082Y-5054841D01*
X9109082Y-5054841D02*
X9175749Y-4911984D01*
X9175749Y-4911984D02*
X9175749Y-5111984D01*
X9356701Y-5111984D02*
X9356701Y-5007222D01*
X9356701Y-5007222D02*
X9347177Y-4988174D01*
X9347177Y-4988174D02*
X9328130Y-4978650D01*
X9328130Y-4978650D02*
X9290034Y-4978650D01*
X9290034Y-4978650D02*
X9270987Y-4988174D01*
X9356701Y-5102460D02*
X9337653Y-5111984D01*
X9337653Y-5111984D02*
X9290034Y-5111984D01*
X9290034Y-5111984D02*
X9270987Y-5102460D01*
X9270987Y-5102460D02*
X9261463Y-5083412D01*
X9261463Y-5083412D02*
X9261463Y-5064365D01*
X9261463Y-5064365D02*
X9270987Y-5045317D01*
X9270987Y-5045317D02*
X9290034Y-5035793D01*
X9290034Y-5035793D02*
X9337653Y-5035793D01*
X9337653Y-5035793D02*
X9356701Y-5026270D01*
X9451939Y-4978650D02*
X9451939Y-5178650D01*
X9451939Y-4988174D02*
X9470987Y-4978650D01*
X9470987Y-4978650D02*
X9509082Y-4978650D01*
X9509082Y-4978650D02*
X9528130Y-4988174D01*
X9528130Y-4988174D02*
X9537653Y-4997698D01*
X9537653Y-4997698D02*
X9547177Y-5016746D01*
X9547177Y-5016746D02*
X9547177Y-5073889D01*
X9547177Y-5073889D02*
X9537653Y-5092936D01*
X9537653Y-5092936D02*
X9528130Y-5102460D01*
X9528130Y-5102460D02*
X9509082Y-5111984D01*
X9509082Y-5111984D02*
X9470987Y-5111984D01*
X9470987Y-5111984D02*
X9451939Y-5102460D01*
X9632892Y-5092936D02*
X9642415Y-5102460D01*
X9642415Y-5102460D02*
X9632892Y-5111984D01*
X9632892Y-5111984D02*
X9623368Y-5102460D01*
X9623368Y-5102460D02*
X9632892Y-5092936D01*
X9632892Y-5092936D02*
X9632892Y-5111984D01*
X9632892Y-4988174D02*
X9642415Y-4997698D01*
X9642415Y-4997698D02*
X9632892Y-5007222D01*
X9632892Y-5007222D02*
X9623368Y-4997698D01*
X9623368Y-4997698D02*
X9632892Y-4988174D01*
X9632892Y-4988174D02*
X9632892Y-5007222D01*
D12*
X7970686Y-5425500D02*
X8000686Y-5455500D01*
X8000686Y-5425500D02*
X7970686Y-5455500D01*
D11*
X8299558Y-5331984D02*
X8318606Y-5331984D01*
X8318606Y-5331984D02*
X8337653Y-5341508D01*
X8337653Y-5341508D02*
X8347177Y-5351031D01*
X8347177Y-5351031D02*
X8356701Y-5370079D01*
X8356701Y-5370079D02*
X8366225Y-5408174D01*
X8366225Y-5408174D02*
X8366225Y-5455793D01*
X8366225Y-5455793D02*
X8356701Y-5493889D01*
X8356701Y-5493889D02*
X8347177Y-5512936D01*
X8347177Y-5512936D02*
X8337653Y-5522460D01*
X8337653Y-5522460D02*
X8318606Y-5531984D01*
X8318606Y-5531984D02*
X8299558Y-5531984D01*
X8299558Y-5531984D02*
X8280510Y-5522460D01*
X8280510Y-5522460D02*
X8270987Y-5512936D01*
X8270987Y-5512936D02*
X8261463Y-5493889D01*
X8261463Y-5493889D02*
X8251939Y-5455793D01*
X8251939Y-5455793D02*
X8251939Y-5408174D01*
X8251939Y-5408174D02*
X8261463Y-5370079D01*
X8261463Y-5370079D02*
X8270987Y-5351031D01*
X8270987Y-5351031D02*
X8280510Y-5341508D01*
X8280510Y-5341508D02*
X8299558Y-5331984D01*
X8451939Y-5512936D02*
X8461463Y-5522460D01*
X8461463Y-5522460D02*
X8451939Y-5531984D01*
X8451939Y-5531984D02*
X8442415Y-5522460D01*
X8442415Y-5522460D02*
X8451939Y-5512936D01*
X8451939Y-5512936D02*
X8451939Y-5531984D01*
X8528130Y-5331984D02*
X8651939Y-5331984D01*
X8651939Y-5331984D02*
X8585272Y-5408174D01*
X8585272Y-5408174D02*
X8613844Y-5408174D01*
X8613844Y-5408174D02*
X8632892Y-5417698D01*
X8632892Y-5417698D02*
X8642415Y-5427222D01*
X8642415Y-5427222D02*
X8651939Y-5446270D01*
X8651939Y-5446270D02*
X8651939Y-5493889D01*
X8651939Y-5493889D02*
X8642415Y-5512936D01*
X8642415Y-5512936D02*
X8632892Y-5522460D01*
X8632892Y-5522460D02*
X8613844Y-5531984D01*
X8613844Y-5531984D02*
X8556701Y-5531984D01*
X8556701Y-5531984D02*
X8537653Y-5522460D01*
X8537653Y-5522460D02*
X8528130Y-5512936D01*
X8775749Y-5331984D02*
X8794796Y-5331984D01*
X8794796Y-5331984D02*
X8813844Y-5341508D01*
X8813844Y-5341508D02*
X8823368Y-5351031D01*
X8823368Y-5351031D02*
X8832892Y-5370079D01*
X8832892Y-5370079D02*
X8842415Y-5408174D01*
X8842415Y-5408174D02*
X8842415Y-5455793D01*
X8842415Y-5455793D02*
X8832892Y-5493889D01*
X8832892Y-5493889D02*
X8823368Y-5512936D01*
X8823368Y-5512936D02*
X8813844Y-5522460D01*
X8813844Y-5522460D02*
X8794796Y-5531984D01*
X8794796Y-5531984D02*
X8775749Y-5531984D01*
X8775749Y-5531984D02*
X8756701Y-5522460D01*
X8756701Y-5522460D02*
X8747177Y-5512936D01*
X8747177Y-5512936D02*
X8737653Y-5493889D01*
X8737653Y-5493889D02*
X8728130Y-5455793D01*
X8728130Y-5455793D02*
X8728130Y-5408174D01*
X8728130Y-5408174D02*
X8737653Y-5370079D01*
X8737653Y-5370079D02*
X8747177Y-5351031D01*
X8747177Y-5351031D02*
X8756701Y-5341508D01*
X8756701Y-5341508D02*
X8775749Y-5331984D01*
X8966225Y-5331984D02*
X8985273Y-5331984D01*
X8985273Y-5331984D02*
X9004320Y-5341508D01*
X9004320Y-5341508D02*
X9013844Y-5351031D01*
X9013844Y-5351031D02*
X9023368Y-5370079D01*
X9023368Y-5370079D02*
X9032892Y-5408174D01*
X9032892Y-5408174D02*
X9032892Y-5455793D01*
X9032892Y-5455793D02*
X9023368Y-5493889D01*
X9023368Y-5493889D02*
X9013844Y-5512936D01*
X9013844Y-5512936D02*
X9004320Y-5522460D01*
X9004320Y-5522460D02*
X8985273Y-5531984D01*
X8985273Y-5531984D02*
X8966225Y-5531984D01*
X8966225Y-5531984D02*
X8947177Y-5522460D01*
X8947177Y-5522460D02*
X8937653Y-5512936D01*
X8937653Y-5512936D02*
X8928130Y-5493889D01*
X8928130Y-5493889D02*
X8918606Y-5455793D01*
X8918606Y-5455793D02*
X8918606Y-5408174D01*
X8918606Y-5408174D02*
X8928130Y-5370079D01*
X8928130Y-5370079D02*
X8937653Y-5351031D01*
X8937653Y-5351031D02*
X8947177Y-5341508D01*
X8947177Y-5341508D02*
X8966225Y-5331984D01*
X9118606Y-5531984D02*
X9118606Y-5398650D01*
X9118606Y-5417698D02*
X9128130Y-5408174D01*
X9128130Y-5408174D02*
X9147177Y-5398650D01*
X9147177Y-5398650D02*
X9175749Y-5398650D01*
X9175749Y-5398650D02*
X9194796Y-5408174D01*
X9194796Y-5408174D02*
X9204320Y-5427222D01*
X9204320Y-5427222D02*
X9204320Y-5531984D01*
X9204320Y-5427222D02*
X9213844Y-5408174D01*
X9213844Y-5408174D02*
X9232892Y-5398650D01*
X9232892Y-5398650D02*
X9261463Y-5398650D01*
X9261463Y-5398650D02*
X9280511Y-5408174D01*
X9280511Y-5408174D02*
X9290034Y-5427222D01*
X9290034Y-5427222D02*
X9290034Y-5531984D01*
X9385273Y-5531984D02*
X9385273Y-5398650D01*
X9385273Y-5417698D02*
X9394796Y-5408174D01*
X9394796Y-5408174D02*
X9413844Y-5398650D01*
X9413844Y-5398650D02*
X9442415Y-5398650D01*
X9442415Y-5398650D02*
X9461463Y-5408174D01*
X9461463Y-5408174D02*
X9470987Y-5427222D01*
X9470987Y-5427222D02*
X9470987Y-5531984D01*
X9470987Y-5427222D02*
X9480511Y-5408174D01*
X9480511Y-5408174D02*
X9499558Y-5398650D01*
X9499558Y-5398650D02*
X9528130Y-5398650D01*
X9528130Y-5398650D02*
X9547177Y-5408174D01*
X9547177Y-5408174D02*
X9556701Y-5427222D01*
X9556701Y-5427222D02*
X9556701Y-5531984D01*
X9947177Y-5322460D02*
X9775749Y-5579603D01*
X10204320Y-5331984D02*
X10223368Y-5331984D01*
X10223368Y-5331984D02*
X10242416Y-5341508D01*
X10242416Y-5341508D02*
X10251939Y-5351031D01*
X10251939Y-5351031D02*
X10261463Y-5370079D01*
X10261463Y-5370079D02*
X10270987Y-5408174D01*
X10270987Y-5408174D02*
X10270987Y-5455793D01*
X10270987Y-5455793D02*
X10261463Y-5493889D01*
X10261463Y-5493889D02*
X10251939Y-5512936D01*
X10251939Y-5512936D02*
X10242416Y-5522460D01*
X10242416Y-5522460D02*
X10223368Y-5531984D01*
X10223368Y-5531984D02*
X10204320Y-5531984D01*
X10204320Y-5531984D02*
X10185273Y-5522460D01*
X10185273Y-5522460D02*
X10175749Y-5512936D01*
X10175749Y-5512936D02*
X10166225Y-5493889D01*
X10166225Y-5493889D02*
X10156701Y-5455793D01*
X10156701Y-5455793D02*
X10156701Y-5408174D01*
X10156701Y-5408174D02*
X10166225Y-5370079D01*
X10166225Y-5370079D02*
X10175749Y-5351031D01*
X10175749Y-5351031D02*
X10185273Y-5341508D01*
X10185273Y-5341508D02*
X10204320Y-5331984D01*
X10356701Y-5512936D02*
X10366225Y-5522460D01*
X10366225Y-5522460D02*
X10356701Y-5531984D01*
X10356701Y-5531984D02*
X10347177Y-5522460D01*
X10347177Y-5522460D02*
X10356701Y-5512936D01*
X10356701Y-5512936D02*
X10356701Y-5531984D01*
X10490035Y-5331984D02*
X10509082Y-5331984D01*
X10509082Y-5331984D02*
X10528130Y-5341508D01*
X10528130Y-5341508D02*
X10537654Y-5351031D01*
X10537654Y-5351031D02*
X10547177Y-5370079D01*
X10547177Y-5370079D02*
X10556701Y-5408174D01*
X10556701Y-5408174D02*
X10556701Y-5455793D01*
X10556701Y-5455793D02*
X10547177Y-5493889D01*
X10547177Y-5493889D02*
X10537654Y-5512936D01*
X10537654Y-5512936D02*
X10528130Y-5522460D01*
X10528130Y-5522460D02*
X10509082Y-5531984D01*
X10509082Y-5531984D02*
X10490035Y-5531984D01*
X10490035Y-5531984D02*
X10470987Y-5522460D01*
X10470987Y-5522460D02*
X10461463Y-5512936D01*
X10461463Y-5512936D02*
X10451939Y-5493889D01*
X10451939Y-5493889D02*
X10442416Y-5455793D01*
X10442416Y-5455793D02*
X10442416Y-5408174D01*
X10442416Y-5408174D02*
X10451939Y-5370079D01*
X10451939Y-5370079D02*
X10461463Y-5351031D01*
X10461463Y-5351031D02*
X10470987Y-5341508D01*
X10470987Y-5341508D02*
X10490035Y-5331984D01*
X10747177Y-5531984D02*
X10632892Y-5531984D01*
X10690035Y-5531984D02*
X10690035Y-5331984D01*
X10690035Y-5331984D02*
X10670987Y-5360555D01*
X10670987Y-5360555D02*
X10651939Y-5379603D01*
X10651939Y-5379603D02*
X10632892Y-5389127D01*
X10937654Y-5531984D02*
X10823368Y-5531984D01*
X10880511Y-5531984D02*
X10880511Y-5331984D01*
X10880511Y-5331984D02*
X10861463Y-5360555D01*
X10861463Y-5360555D02*
X10842416Y-5379603D01*
X10842416Y-5379603D02*
X10823368Y-5389127D01*
X11051939Y-5417698D02*
X11032892Y-5408174D01*
X11032892Y-5408174D02*
X11023368Y-5398650D01*
X11023368Y-5398650D02*
X11013844Y-5379603D01*
X11013844Y-5379603D02*
X11013844Y-5370079D01*
X11013844Y-5370079D02*
X11023368Y-5351031D01*
X11023368Y-5351031D02*
X11032892Y-5341508D01*
X11032892Y-5341508D02*
X11051939Y-5331984D01*
X11051939Y-5331984D02*
X11090035Y-5331984D01*
X11090035Y-5331984D02*
X11109082Y-5341508D01*
X11109082Y-5341508D02*
X11118606Y-5351031D01*
X11118606Y-5351031D02*
X11128130Y-5370079D01*
X11128130Y-5370079D02*
X11128130Y-5379603D01*
X11128130Y-5379603D02*
X11118606Y-5398650D01*
X11118606Y-5398650D02*
X11109082Y-5408174D01*
X11109082Y-5408174D02*
X11090035Y-5417698D01*
X11090035Y-5417698D02*
X11051939Y-5417698D01*
X11051939Y-5417698D02*
X11032892Y-5427222D01*
X11032892Y-5427222D02*
X11023368Y-5436746D01*
X11023368Y-5436746D02*
X11013844Y-5455793D01*
X11013844Y-5455793D02*
X11013844Y-5493889D01*
X11013844Y-5493889D02*
X11023368Y-5512936D01*
X11023368Y-5512936D02*
X11032892Y-5522460D01*
X11032892Y-5522460D02*
X11051939Y-5531984D01*
X11051939Y-5531984D02*
X11090035Y-5531984D01*
X11090035Y-5531984D02*
X11109082Y-5522460D01*
X11109082Y-5522460D02*
X11118606Y-5512936D01*
X11118606Y-5512936D02*
X11128130Y-5493889D01*
X11128130Y-5493889D02*
X11128130Y-5455793D01*
X11128130Y-5455793D02*
X11118606Y-5436746D01*
X11118606Y-5436746D02*
X11109082Y-5427222D01*
X11109082Y-5427222D02*
X11090035Y-5417698D01*
X11204320Y-5331984D02*
X11204320Y-5370079D01*
X11280511Y-5331984D02*
X11280511Y-5370079D01*
X11575749Y-5608174D02*
X11566225Y-5598650D01*
X11566225Y-5598650D02*
X11547177Y-5570079D01*
X11547177Y-5570079D02*
X11537654Y-5551031D01*
X11537654Y-5551031D02*
X11528130Y-5522460D01*
X11528130Y-5522460D02*
X11518606Y-5474841D01*
X11518606Y-5474841D02*
X11518606Y-5436746D01*
X11518606Y-5436746D02*
X11528130Y-5389127D01*
X11528130Y-5389127D02*
X11537654Y-5360555D01*
X11537654Y-5360555D02*
X11547177Y-5341508D01*
X11547177Y-5341508D02*
X11566225Y-5312936D01*
X11566225Y-5312936D02*
X11575749Y-5303412D01*
X11642416Y-5351031D02*
X11651939Y-5341508D01*
X11651939Y-5341508D02*
X11670987Y-5331984D01*
X11670987Y-5331984D02*
X11718606Y-5331984D01*
X11718606Y-5331984D02*
X11737654Y-5341508D01*
X11737654Y-5341508D02*
X11747177Y-5351031D01*
X11747177Y-5351031D02*
X11756701Y-5370079D01*
X11756701Y-5370079D02*
X11756701Y-5389127D01*
X11756701Y-5389127D02*
X11747177Y-5417698D01*
X11747177Y-5417698D02*
X11632892Y-5531984D01*
X11632892Y-5531984D02*
X11756701Y-5531984D01*
X11994797Y-5531984D02*
X11994797Y-5331984D01*
X12080511Y-5531984D02*
X12080511Y-5427222D01*
X12080511Y-5427222D02*
X12070987Y-5408174D01*
X12070987Y-5408174D02*
X12051939Y-5398650D01*
X12051939Y-5398650D02*
X12023368Y-5398650D01*
X12023368Y-5398650D02*
X12004320Y-5408174D01*
X12004320Y-5408174D02*
X11994797Y-5417698D01*
X12204320Y-5531984D02*
X12185273Y-5522460D01*
X12185273Y-5522460D02*
X12175749Y-5512936D01*
X12175749Y-5512936D02*
X12166225Y-5493889D01*
X12166225Y-5493889D02*
X12166225Y-5436746D01*
X12166225Y-5436746D02*
X12175749Y-5417698D01*
X12175749Y-5417698D02*
X12185273Y-5408174D01*
X12185273Y-5408174D02*
X12204320Y-5398650D01*
X12204320Y-5398650D02*
X12232892Y-5398650D01*
X12232892Y-5398650D02*
X12251939Y-5408174D01*
X12251939Y-5408174D02*
X12261463Y-5417698D01*
X12261463Y-5417698D02*
X12270987Y-5436746D01*
X12270987Y-5436746D02*
X12270987Y-5493889D01*
X12270987Y-5493889D02*
X12261463Y-5512936D01*
X12261463Y-5512936D02*
X12251939Y-5522460D01*
X12251939Y-5522460D02*
X12232892Y-5531984D01*
X12232892Y-5531984D02*
X12204320Y-5531984D01*
X12385273Y-5531984D02*
X12366225Y-5522460D01*
X12366225Y-5522460D02*
X12356701Y-5503412D01*
X12356701Y-5503412D02*
X12356701Y-5331984D01*
X12537654Y-5522460D02*
X12518606Y-5531984D01*
X12518606Y-5531984D02*
X12480511Y-5531984D01*
X12480511Y-5531984D02*
X12461463Y-5522460D01*
X12461463Y-5522460D02*
X12451939Y-5503412D01*
X12451939Y-5503412D02*
X12451939Y-5427222D01*
X12451939Y-5427222D02*
X12461463Y-5408174D01*
X12461463Y-5408174D02*
X12480511Y-5398650D01*
X12480511Y-5398650D02*
X12518606Y-5398650D01*
X12518606Y-5398650D02*
X12537654Y-5408174D01*
X12537654Y-5408174D02*
X12547178Y-5427222D01*
X12547178Y-5427222D02*
X12547178Y-5446270D01*
X12547178Y-5446270D02*
X12451939Y-5465317D01*
X12623368Y-5522460D02*
X12642416Y-5531984D01*
X12642416Y-5531984D02*
X12680511Y-5531984D01*
X12680511Y-5531984D02*
X12699559Y-5522460D01*
X12699559Y-5522460D02*
X12709082Y-5503412D01*
X12709082Y-5503412D02*
X12709082Y-5493889D01*
X12709082Y-5493889D02*
X12699559Y-5474841D01*
X12699559Y-5474841D02*
X12680511Y-5465317D01*
X12680511Y-5465317D02*
X12651939Y-5465317D01*
X12651939Y-5465317D02*
X12632892Y-5455793D01*
X12632892Y-5455793D02*
X12623368Y-5436746D01*
X12623368Y-5436746D02*
X12623368Y-5427222D01*
X12623368Y-5427222D02*
X12632892Y-5408174D01*
X12632892Y-5408174D02*
X12651939Y-5398650D01*
X12651939Y-5398650D02*
X12680511Y-5398650D01*
X12680511Y-5398650D02*
X12699559Y-5408174D01*
X12775749Y-5608174D02*
X12785273Y-5598650D01*
X12785273Y-5598650D02*
X12804320Y-5570079D01*
X12804320Y-5570079D02*
X12813844Y-5551031D01*
X12813844Y-5551031D02*
X12823368Y-5522460D01*
X12823368Y-5522460D02*
X12832892Y-5474841D01*
X12832892Y-5474841D02*
X12832892Y-5436746D01*
X12832892Y-5436746D02*
X12823368Y-5389127D01*
X12823368Y-5389127D02*
X12813844Y-5360555D01*
X12813844Y-5360555D02*
X12804320Y-5341508D01*
X12804320Y-5341508D02*
X12785273Y-5312936D01*
X12785273Y-5312936D02*
X12775749Y-5303412D01*
D12*
X8000686Y-5704500D02*
G75*
G02*
X7900686Y-5704500I-50000J0D01*
G01*
X7900686Y-5704500D02*
G75*
G02*
X8000686Y-5704500I50000J0D01*
G01*
D11*
X8366225Y-5795984D02*
X8251939Y-5795984D01*
X8309082Y-5795984D02*
X8309082Y-5595984D01*
X8309082Y-5595984D02*
X8290034Y-5624555D01*
X8290034Y-5624555D02*
X8270987Y-5643603D01*
X8270987Y-5643603D02*
X8251939Y-5653127D01*
X8451939Y-5776936D02*
X8461463Y-5786460D01*
X8461463Y-5786460D02*
X8451939Y-5795984D01*
X8451939Y-5795984D02*
X8442415Y-5786460D01*
X8442415Y-5786460D02*
X8451939Y-5776936D01*
X8451939Y-5776936D02*
X8451939Y-5795984D01*
X8585272Y-5595984D02*
X8604320Y-5595984D01*
X8604320Y-5595984D02*
X8623368Y-5605508D01*
X8623368Y-5605508D02*
X8632892Y-5615031D01*
X8632892Y-5615031D02*
X8642415Y-5634079D01*
X8642415Y-5634079D02*
X8651939Y-5672174D01*
X8651939Y-5672174D02*
X8651939Y-5719793D01*
X8651939Y-5719793D02*
X8642415Y-5757888D01*
X8642415Y-5757888D02*
X8632892Y-5776936D01*
X8632892Y-5776936D02*
X8623368Y-5786460D01*
X8623368Y-5786460D02*
X8604320Y-5795984D01*
X8604320Y-5795984D02*
X8585272Y-5795984D01*
X8585272Y-5795984D02*
X8566225Y-5786460D01*
X8566225Y-5786460D02*
X8556701Y-5776936D01*
X8556701Y-5776936D02*
X8547177Y-5757888D01*
X8547177Y-5757888D02*
X8537653Y-5719793D01*
X8537653Y-5719793D02*
X8537653Y-5672174D01*
X8537653Y-5672174D02*
X8547177Y-5634079D01*
X8547177Y-5634079D02*
X8556701Y-5615031D01*
X8556701Y-5615031D02*
X8566225Y-5605508D01*
X8566225Y-5605508D02*
X8585272Y-5595984D01*
X8775749Y-5595984D02*
X8794796Y-5595984D01*
X8794796Y-5595984D02*
X8813844Y-5605508D01*
X8813844Y-5605508D02*
X8823368Y-5615031D01*
X8823368Y-5615031D02*
X8832892Y-5634079D01*
X8832892Y-5634079D02*
X8842415Y-5672174D01*
X8842415Y-5672174D02*
X8842415Y-5719793D01*
X8842415Y-5719793D02*
X8832892Y-5757888D01*
X8832892Y-5757888D02*
X8823368Y-5776936D01*
X8823368Y-5776936D02*
X8813844Y-5786460D01*
X8813844Y-5786460D02*
X8794796Y-5795984D01*
X8794796Y-5795984D02*
X8775749Y-5795984D01*
X8775749Y-5795984D02*
X8756701Y-5786460D01*
X8756701Y-5786460D02*
X8747177Y-5776936D01*
X8747177Y-5776936D02*
X8737653Y-5757888D01*
X8737653Y-5757888D02*
X8728130Y-5719793D01*
X8728130Y-5719793D02*
X8728130Y-5672174D01*
X8728130Y-5672174D02*
X8737653Y-5634079D01*
X8737653Y-5634079D02*
X8747177Y-5615031D01*
X8747177Y-5615031D02*
X8756701Y-5605508D01*
X8756701Y-5605508D02*
X8775749Y-5595984D01*
X8966225Y-5595984D02*
X8985273Y-5595984D01*
X8985273Y-5595984D02*
X9004320Y-5605508D01*
X9004320Y-5605508D02*
X9013844Y-5615031D01*
X9013844Y-5615031D02*
X9023368Y-5634079D01*
X9023368Y-5634079D02*
X9032892Y-5672174D01*
X9032892Y-5672174D02*
X9032892Y-5719793D01*
X9032892Y-5719793D02*
X9023368Y-5757888D01*
X9023368Y-5757888D02*
X9013844Y-5776936D01*
X9013844Y-5776936D02*
X9004320Y-5786460D01*
X9004320Y-5786460D02*
X8985273Y-5795984D01*
X8985273Y-5795984D02*
X8966225Y-5795984D01*
X8966225Y-5795984D02*
X8947177Y-5786460D01*
X8947177Y-5786460D02*
X8937653Y-5776936D01*
X8937653Y-5776936D02*
X8928130Y-5757888D01*
X8928130Y-5757888D02*
X8918606Y-5719793D01*
X8918606Y-5719793D02*
X8918606Y-5672174D01*
X8918606Y-5672174D02*
X8928130Y-5634079D01*
X8928130Y-5634079D02*
X8937653Y-5615031D01*
X8937653Y-5615031D02*
X8947177Y-5605508D01*
X8947177Y-5605508D02*
X8966225Y-5595984D01*
X9118606Y-5795984D02*
X9118606Y-5662650D01*
X9118606Y-5681698D02*
X9128130Y-5672174D01*
X9128130Y-5672174D02*
X9147177Y-5662650D01*
X9147177Y-5662650D02*
X9175749Y-5662650D01*
X9175749Y-5662650D02*
X9194796Y-5672174D01*
X9194796Y-5672174D02*
X9204320Y-5691222D01*
X9204320Y-5691222D02*
X9204320Y-5795984D01*
X9204320Y-5691222D02*
X9213844Y-5672174D01*
X9213844Y-5672174D02*
X9232892Y-5662650D01*
X9232892Y-5662650D02*
X9261463Y-5662650D01*
X9261463Y-5662650D02*
X9280511Y-5672174D01*
X9280511Y-5672174D02*
X9290034Y-5691222D01*
X9290034Y-5691222D02*
X9290034Y-5795984D01*
X9385273Y-5795984D02*
X9385273Y-5662650D01*
X9385273Y-5681698D02*
X9394796Y-5672174D01*
X9394796Y-5672174D02*
X9413844Y-5662650D01*
X9413844Y-5662650D02*
X9442415Y-5662650D01*
X9442415Y-5662650D02*
X9461463Y-5672174D01*
X9461463Y-5672174D02*
X9470987Y-5691222D01*
X9470987Y-5691222D02*
X9470987Y-5795984D01*
X9470987Y-5691222D02*
X9480511Y-5672174D01*
X9480511Y-5672174D02*
X9499558Y-5662650D01*
X9499558Y-5662650D02*
X9528130Y-5662650D01*
X9528130Y-5662650D02*
X9547177Y-5672174D01*
X9547177Y-5672174D02*
X9556701Y-5691222D01*
X9556701Y-5691222D02*
X9556701Y-5795984D01*
X9947177Y-5586460D02*
X9775749Y-5843603D01*
X10204320Y-5595984D02*
X10223368Y-5595984D01*
X10223368Y-5595984D02*
X10242416Y-5605508D01*
X10242416Y-5605508D02*
X10251939Y-5615031D01*
X10251939Y-5615031D02*
X10261463Y-5634079D01*
X10261463Y-5634079D02*
X10270987Y-5672174D01*
X10270987Y-5672174D02*
X10270987Y-5719793D01*
X10270987Y-5719793D02*
X10261463Y-5757888D01*
X10261463Y-5757888D02*
X10251939Y-5776936D01*
X10251939Y-5776936D02*
X10242416Y-5786460D01*
X10242416Y-5786460D02*
X10223368Y-5795984D01*
X10223368Y-5795984D02*
X10204320Y-5795984D01*
X10204320Y-5795984D02*
X10185273Y-5786460D01*
X10185273Y-5786460D02*
X10175749Y-5776936D01*
X10175749Y-5776936D02*
X10166225Y-5757888D01*
X10166225Y-5757888D02*
X10156701Y-5719793D01*
X10156701Y-5719793D02*
X10156701Y-5672174D01*
X10156701Y-5672174D02*
X10166225Y-5634079D01*
X10166225Y-5634079D02*
X10175749Y-5615031D01*
X10175749Y-5615031D02*
X10185273Y-5605508D01*
X10185273Y-5605508D02*
X10204320Y-5595984D01*
X10356701Y-5776936D02*
X10366225Y-5786460D01*
X10366225Y-5786460D02*
X10356701Y-5795984D01*
X10356701Y-5795984D02*
X10347177Y-5786460D01*
X10347177Y-5786460D02*
X10356701Y-5776936D01*
X10356701Y-5776936D02*
X10356701Y-5795984D01*
X10490035Y-5595984D02*
X10509082Y-5595984D01*
X10509082Y-5595984D02*
X10528130Y-5605508D01*
X10528130Y-5605508D02*
X10537654Y-5615031D01*
X10537654Y-5615031D02*
X10547177Y-5634079D01*
X10547177Y-5634079D02*
X10556701Y-5672174D01*
X10556701Y-5672174D02*
X10556701Y-5719793D01*
X10556701Y-5719793D02*
X10547177Y-5757888D01*
X10547177Y-5757888D02*
X10537654Y-5776936D01*
X10537654Y-5776936D02*
X10528130Y-5786460D01*
X10528130Y-5786460D02*
X10509082Y-5795984D01*
X10509082Y-5795984D02*
X10490035Y-5795984D01*
X10490035Y-5795984D02*
X10470987Y-5786460D01*
X10470987Y-5786460D02*
X10461463Y-5776936D01*
X10461463Y-5776936D02*
X10451939Y-5757888D01*
X10451939Y-5757888D02*
X10442416Y-5719793D01*
X10442416Y-5719793D02*
X10442416Y-5672174D01*
X10442416Y-5672174D02*
X10451939Y-5634079D01*
X10451939Y-5634079D02*
X10461463Y-5615031D01*
X10461463Y-5615031D02*
X10470987Y-5605508D01*
X10470987Y-5605508D02*
X10490035Y-5595984D01*
X10623368Y-5595984D02*
X10747177Y-5595984D01*
X10747177Y-5595984D02*
X10680511Y-5672174D01*
X10680511Y-5672174D02*
X10709082Y-5672174D01*
X10709082Y-5672174D02*
X10728130Y-5681698D01*
X10728130Y-5681698D02*
X10737654Y-5691222D01*
X10737654Y-5691222D02*
X10747177Y-5710269D01*
X10747177Y-5710269D02*
X10747177Y-5757888D01*
X10747177Y-5757888D02*
X10737654Y-5776936D01*
X10737654Y-5776936D02*
X10728130Y-5786460D01*
X10728130Y-5786460D02*
X10709082Y-5795984D01*
X10709082Y-5795984D02*
X10651939Y-5795984D01*
X10651939Y-5795984D02*
X10632892Y-5786460D01*
X10632892Y-5786460D02*
X10623368Y-5776936D01*
X10842416Y-5795984D02*
X10880511Y-5795984D01*
X10880511Y-5795984D02*
X10899558Y-5786460D01*
X10899558Y-5786460D02*
X10909082Y-5776936D01*
X10909082Y-5776936D02*
X10928130Y-5748365D01*
X10928130Y-5748365D02*
X10937654Y-5710269D01*
X10937654Y-5710269D02*
X10937654Y-5634079D01*
X10937654Y-5634079D02*
X10928130Y-5615031D01*
X10928130Y-5615031D02*
X10918606Y-5605508D01*
X10918606Y-5605508D02*
X10899558Y-5595984D01*
X10899558Y-5595984D02*
X10861463Y-5595984D01*
X10861463Y-5595984D02*
X10842416Y-5605508D01*
X10842416Y-5605508D02*
X10832892Y-5615031D01*
X10832892Y-5615031D02*
X10823368Y-5634079D01*
X10823368Y-5634079D02*
X10823368Y-5681698D01*
X10823368Y-5681698D02*
X10832892Y-5700746D01*
X10832892Y-5700746D02*
X10842416Y-5710269D01*
X10842416Y-5710269D02*
X10861463Y-5719793D01*
X10861463Y-5719793D02*
X10899558Y-5719793D01*
X10899558Y-5719793D02*
X10918606Y-5710269D01*
X10918606Y-5710269D02*
X10928130Y-5700746D01*
X10928130Y-5700746D02*
X10937654Y-5681698D01*
X11109082Y-5662650D02*
X11109082Y-5795984D01*
X11061463Y-5586460D02*
X11013844Y-5729317D01*
X11013844Y-5729317D02*
X11137654Y-5729317D01*
X11204320Y-5595984D02*
X11204320Y-5634079D01*
X11280511Y-5595984D02*
X11280511Y-5634079D01*
X11575749Y-5872174D02*
X11566225Y-5862650D01*
X11566225Y-5862650D02*
X11547177Y-5834079D01*
X11547177Y-5834079D02*
X11537654Y-5815031D01*
X11537654Y-5815031D02*
X11528130Y-5786460D01*
X11528130Y-5786460D02*
X11518606Y-5738841D01*
X11518606Y-5738841D02*
X11518606Y-5700746D01*
X11518606Y-5700746D02*
X11528130Y-5653127D01*
X11528130Y-5653127D02*
X11537654Y-5624555D01*
X11537654Y-5624555D02*
X11547177Y-5605508D01*
X11547177Y-5605508D02*
X11566225Y-5576936D01*
X11566225Y-5576936D02*
X11575749Y-5567412D01*
X11632892Y-5595984D02*
X11756701Y-5595984D01*
X11756701Y-5595984D02*
X11690035Y-5672174D01*
X11690035Y-5672174D02*
X11718606Y-5672174D01*
X11718606Y-5672174D02*
X11737654Y-5681698D01*
X11737654Y-5681698D02*
X11747177Y-5691222D01*
X11747177Y-5691222D02*
X11756701Y-5710269D01*
X11756701Y-5710269D02*
X11756701Y-5757888D01*
X11756701Y-5757888D02*
X11747177Y-5776936D01*
X11747177Y-5776936D02*
X11737654Y-5786460D01*
X11737654Y-5786460D02*
X11718606Y-5795984D01*
X11718606Y-5795984D02*
X11661463Y-5795984D01*
X11661463Y-5795984D02*
X11642416Y-5786460D01*
X11642416Y-5786460D02*
X11632892Y-5776936D01*
X11994797Y-5795984D02*
X11994797Y-5595984D01*
X12080511Y-5795984D02*
X12080511Y-5691222D01*
X12080511Y-5691222D02*
X12070987Y-5672174D01*
X12070987Y-5672174D02*
X12051939Y-5662650D01*
X12051939Y-5662650D02*
X12023368Y-5662650D01*
X12023368Y-5662650D02*
X12004320Y-5672174D01*
X12004320Y-5672174D02*
X11994797Y-5681698D01*
X12204320Y-5795984D02*
X12185273Y-5786460D01*
X12185273Y-5786460D02*
X12175749Y-5776936D01*
X12175749Y-5776936D02*
X12166225Y-5757888D01*
X12166225Y-5757888D02*
X12166225Y-5700746D01*
X12166225Y-5700746D02*
X12175749Y-5681698D01*
X12175749Y-5681698D02*
X12185273Y-5672174D01*
X12185273Y-5672174D02*
X12204320Y-5662650D01*
X12204320Y-5662650D02*
X12232892Y-5662650D01*
X12232892Y-5662650D02*
X12251939Y-5672174D01*
X12251939Y-5672174D02*
X12261463Y-5681698D01*
X12261463Y-5681698D02*
X12270987Y-5700746D01*
X12270987Y-5700746D02*
X12270987Y-5757888D01*
X12270987Y-5757888D02*
X12261463Y-5776936D01*
X12261463Y-5776936D02*
X12251939Y-5786460D01*
X12251939Y-5786460D02*
X12232892Y-5795984D01*
X12232892Y-5795984D02*
X12204320Y-5795984D01*
X12385273Y-5795984D02*
X12366225Y-5786460D01*
X12366225Y-5786460D02*
X12356701Y-5767412D01*
X12356701Y-5767412D02*
X12356701Y-5595984D01*
X12537654Y-5786460D02*
X12518606Y-5795984D01*
X12518606Y-5795984D02*
X12480511Y-5795984D01*
X12480511Y-5795984D02*
X12461463Y-5786460D01*
X12461463Y-5786460D02*
X12451939Y-5767412D01*
X12451939Y-5767412D02*
X12451939Y-5691222D01*
X12451939Y-5691222D02*
X12461463Y-5672174D01*
X12461463Y-5672174D02*
X12480511Y-5662650D01*
X12480511Y-5662650D02*
X12518606Y-5662650D01*
X12518606Y-5662650D02*
X12537654Y-5672174D01*
X12537654Y-5672174D02*
X12547178Y-5691222D01*
X12547178Y-5691222D02*
X12547178Y-5710269D01*
X12547178Y-5710269D02*
X12451939Y-5729317D01*
X12623368Y-5786460D02*
X12642416Y-5795984D01*
X12642416Y-5795984D02*
X12680511Y-5795984D01*
X12680511Y-5795984D02*
X12699559Y-5786460D01*
X12699559Y-5786460D02*
X12709082Y-5767412D01*
X12709082Y-5767412D02*
X12709082Y-5757888D01*
X12709082Y-5757888D02*
X12699559Y-5738841D01*
X12699559Y-5738841D02*
X12680511Y-5729317D01*
X12680511Y-5729317D02*
X12651939Y-5729317D01*
X12651939Y-5729317D02*
X12632892Y-5719793D01*
X12632892Y-5719793D02*
X12623368Y-5700746D01*
X12623368Y-5700746D02*
X12623368Y-5691222D01*
X12623368Y-5691222D02*
X12632892Y-5672174D01*
X12632892Y-5672174D02*
X12651939Y-5662650D01*
X12651939Y-5662650D02*
X12680511Y-5662650D01*
X12680511Y-5662650D02*
X12699559Y-5672174D01*
X12775749Y-5872174D02*
X12785273Y-5862650D01*
X12785273Y-5862650D02*
X12804320Y-5834079D01*
X12804320Y-5834079D02*
X12813844Y-5815031D01*
X12813844Y-5815031D02*
X12823368Y-5786460D01*
X12823368Y-5786460D02*
X12832892Y-5738841D01*
X12832892Y-5738841D02*
X12832892Y-5700746D01*
X12832892Y-5700746D02*
X12823368Y-5653127D01*
X12823368Y-5653127D02*
X12813844Y-5624555D01*
X12813844Y-5624555D02*
X12804320Y-5605508D01*
X12804320Y-5605508D02*
X12785273Y-5576936D01*
X12785273Y-5576936D02*
X12775749Y-5567412D01*
M02*
